<svg xmlns="http://www.w3.org/2000/svg" width="335.974" height="73.985"><g><path d="M88.329 57.012h10.469v-23.858c2.208-2.279 4.273-3.418 5.982-3.418 2.991 0 4.344 1.567 4.344 6.695v20.582h10.469v-23.858c2.279-2.279 4.273-3.418 6.054-3.418 2.991 0 4.344 1.567 4.344 6.695v20.582h10.469v-21.935c0-8.831-3.418-14.244-11.039-14.244-4.7 0-7.976 2.706-11.11 5.911-1.78-3.775-4.772-5.911-9.757-5.911-4.629 0-7.763 2.493-10.683 5.413h-.285l-.712-4.558h-8.546v35.324" style="-inkscape-font-specification:Source Sans Pro Bold"/><path d="M147.328 39.35c0 11.68 7.763 18.517 17.876 18.517 4.202 0 8.902-1.496 12.534-3.988l-3.49-6.338c-2.564 1.567-4.985 2.35-7.62 2.35-4.7 0-8.261-2.35-9.187-7.692h21.152c.214-.855.427-2.564.427-4.416 0-9.614-4.985-16.95-15.027-16.95-8.475 0-16.665 7.051-16.665 18.517m10.042-3.632c.712-4.7 3.561-6.908 6.837-6.908 4.202 0 5.911 2.849 5.911 6.908h-12.748" style="-inkscape-font-specification:Source Sans Pro Bold"/><path d="M186.255 57.012h10.184v-8.689l4.487-5.057 7.976 13.745h11.324l-13.318-20.796 12.392-14.529h-11.395l-11.181 14.03h-.285v-28.63h-10.184v49.924" style="-inkscape-font-specification:Source Sans Pro Bold"/><path d="M223.364 47.184c0 5.982 4.059 10.683 10.469 10.683 3.988 0 7.335-1.852 10.327-4.487h.214l.783 3.632h8.546v-20.226c0-10.825-4.985-15.953-14.03-15.953-5.555 0-10.612 1.923-15.098 4.629l3.703 6.908c3.418-1.994 6.41-3.205 9.401-3.205 3.775 0 5.341 1.994 5.555 5.128-13.959 1.424-19.87 5.484-19.87 12.891m9.971-.783c0-2.706 2.421-4.843 9.899-5.84v6.196c-1.852 1.852-3.418 2.991-5.84 2.991-2.493 0-4.059-1.068-4.059-3.347" style="-inkscape-font-specification:Source Sans Pro Bold"/><path d="M262.62 57.012h10.469v-23.858c2.279-2.208 3.917-3.418 6.552-3.418 2.991 0 4.344 1.567 4.344 6.695v20.582h10.469v-21.935c0-8.831-3.276-14.244-10.968-14.244-4.772 0-8.333 2.493-11.324 5.341h-.285l-.712-4.487h-8.546v35.324" style="-inkscape-font-specification:Source Sans Pro Bold"/><path d="M301.31 39.35c0 11.751 8.261 18.517 17.235 18.517 8.902 0 17.164-6.766 17.164-18.517s-8.261-18.517-17.164-18.517c-8.974 0-17.235 6.766-17.235 18.517m10.754 0c0-6.125 2.137-10.042 6.481-10.042 4.273 0 6.481 3.917 6.481 10.042s-2.208 10.042-6.481 10.042c-4.344 0-6.481-3.917-6.481-10.042" style="-inkscape-font-specification:Source Sans Pro Bold"/><path d="M41.75 0c-.74 0-31.676 17.866-32.046 18.507-.37.641-.37 36.352 0 36.993.37.641 31.306 18.485 32.046 18.485.74 0 31.654-17.845 32.024-18.485v-.043l-10.696-6.053c-.809.74-20.84 12.302-21.328 12.302-.494 0-21.167-11.917-21.414-12.345-.247-.428-.247-24.284 0-24.712.247-.428 20.92-12.367 21.414-12.367.494 0 21.146 11.939 21.393 12.367v.065l10.501-6.314c-1.545-1.294-31.169-18.399-31.894-18.399z" fill="#222" fill-rule="evenodd"/><path d="M54.128 30.146c-.137-.237-11.587-6.848-11.861-6.848-.274 0-11.724 6.611-11.861 6.848-.137.237-.137 13.459 0 13.696.137.237 11.587 6.848 11.861 6.848.274 0 11.724-6.611 11.861-6.848.137-.237.137-13.459 0-13.696z" fill="#72ac22" fill-rule="evenodd"/><path fill="#222" d="M0 18.313h10.01v37.136h-10.01z"/></g></svg>